<svg width="10" height="10" viewBox="0 0 10 10" fill="none" xmlns="http://www.w3.org/2000/svg">
<g clip-path="url(#clip0_82_11)">
<path d="M5 0.9375C4.19652 0.9375 3.41107 1.17576 2.743 1.62215C2.07492 2.06855 1.55422 2.70302 1.24674 3.44535C0.93926 4.18767 0.858809 5.00451 1.01556 5.79255C1.17231 6.5806 1.55923 7.30447 2.12738 7.87262C2.69553 8.44077 3.4194 8.82769 4.20745 8.98444C4.9955 9.14119 5.81233 9.06074 6.55465 8.75326C7.29698 8.44578 7.93145 7.92508 8.37785 7.257C8.82424 6.58893 9.0625 5.80349 9.0625 5C9.06044 3.92319 8.63176 2.89108 7.87034 2.12966C7.10892 1.36824 6.07681 0.939565 5 0.9375V0.9375ZM5 8.4375C4.32013 8.4375 3.65552 8.23589 3.09023 7.85818C2.52494 7.48046 2.08434 6.9436 1.82417 6.31547C1.56399 5.68735 1.49592 4.99619 1.62855 4.32938C1.76119 3.66257 2.08858 3.05006 2.56932 2.56932C3.05007 2.08858 3.66257 1.76119 4.32938 1.62855C4.99619 1.49591 5.68736 1.56399 6.31548 1.82416C6.9436 2.08434 7.48046 2.52493 7.85818 3.09023C8.2359 3.65552 8.4375 4.32013 8.4375 5C8.43647 5.91136 8.07397 6.78511 7.42954 7.42954C6.78511 8.07397 5.91137 8.43647 5 8.4375V8.4375ZM6.39844 4.07031C6.36053 3.71215 6.18664 3.38218 5.91262 3.14844C5.6386 2.91471 5.28534 2.79502 4.92568 2.81405C4.56602 2.83309 4.22737 2.9894 3.97955 3.25075C3.73174 3.51211 3.59365 3.85858 3.59375 4.21875C3.5932 4.42257 3.63734 4.62403 3.72305 4.80895C3.80876 4.99387 3.93396 5.15775 4.08985 5.28906L3.64844 6.31641C3.60875 6.4115 3.59304 6.51489 3.60268 6.61748C3.61233 6.72007 3.64703 6.81872 3.70374 6.90476C3.76046 6.99079 3.83744 7.06157 3.92792 7.11087C4.01841 7.16017 4.11962 7.18649 4.22266 7.1875H5.77735C5.88038 7.18649 5.9816 7.16017 6.07208 7.11087C6.16256 7.06157 6.23955 6.99079 6.29626 6.90476C6.35297 6.81872 6.38768 6.72007 6.39732 6.61748C6.40696 6.51489 6.39125 6.4115 6.35156 6.31641L5.91016 5.28906C6.08482 5.14118 6.22063 4.9528 6.30574 4.74036C6.39085 4.52792 6.42268 4.29788 6.39844 4.07031V4.07031ZM5.23438 5.30078L5.77735 6.5625H4.22266L4.76563 5.30078C4.79611 5.22939 4.79856 5.14913 4.7725 5.076C4.74643 5.00288 4.69377 4.94227 4.625 4.90625C4.50198 4.83847 4.3994 4.73893 4.32795 4.618C4.25649 4.49708 4.21878 4.35921 4.21875 4.21875C4.21978 4.01187 4.30242 3.81375 4.44871 3.66746C4.595 3.52117 4.79312 3.43853 5 3.4375H5.08985C5.25407 3.458 5.40762 3.52987 5.52856 3.64285C5.64951 3.75583 5.73166 3.90413 5.76328 4.06658C5.7949 4.22903 5.77438 4.39732 5.70465 4.54742C5.63492 4.69751 5.51955 4.82174 5.375 4.90234C5.30528 4.93841 5.25193 4.9997 5.22581 5.07372C5.19968 5.14774 5.20274 5.22894 5.23438 5.30078V5.30078Z" fill="#F8F8F8"/>
</g>
<defs>
<clipPath id="clip0_82_11">
<rect width="10" height="10" fill="white"/>
</clipPath>
</defs>
</svg>
