<svg width="200" height="200" viewBox="0 0 200 200" fill="none" xmlns="http://www.w3.org/2000/svg">
<rect width="200" height="200" rx="100" fill="white"/>
<path d="M126.681 90.6603C129.386 90.6687 132.066 90.0682 134.566 88.8934C137.065 87.7186 139.334 85.9929 141.242 83.8163L161.058 61.3487C162.625 59.5706 162.769 56.6771 161.277 54.8114C160.902 54.3426 160.447 53.9651 159.94 53.7018C159.433 53.4385 158.884 53.2948 158.326 53.2795C157.768 53.2642 157.214 53.3777 156.696 53.6129C156.178 53.8481 155.708 54.2002 155.314 54.6478L137.652 74.6716C137.059 75.3436 136.255 75.7211 135.417 75.7211C134.579 75.7211 133.775 75.3436 133.182 74.6716C131.949 73.276 132.016 70.9168 133.246 69.5211L150.831 49.5704C151.225 49.1231 151.535 48.5897 151.742 48.0025C151.949 47.4153 152.049 46.7865 152.035 46.1543C152.022 45.522 151.895 44.8994 151.664 44.3242C151.432 43.7491 151.099 43.2333 150.687 42.8082C149.941 42.0413 148.97 41.6194 147.964 41.6257C146.824 41.6266 145.73 42.1412 144.925 43.0564L127.355 62.9867C126.762 63.6587 125.958 64.0362 125.12 64.0362C124.282 64.0362 123.478 63.6587 122.885 62.9867C121.655 61.5911 121.719 59.2319 122.95 57.8362L140.534 37.8913C140.928 37.4441 141.238 36.9107 141.445 36.3235C141.653 35.7363 141.752 35.1075 141.739 34.4752C141.725 33.8429 141.599 33.2203 141.367 32.6451C141.135 32.07 140.803 31.5542 140.39 31.1291C139.645 30.3623 138.673 29.9403 137.667 29.9466C136.527 29.9481 135.434 30.4626 134.628 31.3773L114.825 53.8449C112.906 56.0095 111.385 58.5845 110.35 61.4207C109.314 64.2569 108.785 67.298 108.793 70.3679V72.7709C108.793 73.3852 108.687 73.9936 108.48 74.5613C108.273 75.1289 107.969 75.6447 107.586 76.0789L98.4216 86.4792C98.3259 86.5878 98.2124 86.6739 98.0875 86.7327C97.9625 86.7914 97.8285 86.8217 97.6933 86.8217C97.558 86.8217 97.424 86.7914 97.2991 86.7327C97.1741 86.6739 97.0606 86.5878 96.965 86.4792L52.3714 35.8825C51.6018 35.0083 50.5582 34.5156 49.4691 34.5123C48.3801 34.5091 47.3342 34.9954 46.5605 35.865C42.6616 40.2475 40.5797 46.4345 40.5797 53.7544C40.5539 65.8422 46.1539 79.7403 55.1946 89.9829L77.1851 114.932C80.3106 118.471 84.5457 120.459 88.9614 120.459C90.3691 120.46 91.7711 120.256 93.133 119.852C93.475 119.75 93.8269 119.698 94.1804 119.697C95.2141 119.698 96.2096 120.141 96.9675 120.938L99.8987 124.01C100.655 124.886 101.079 126.063 101.083 127.289V128.906C101.075 132.584 102.349 136.115 104.626 138.731L127.801 165.468L127.824 165.497C130.396 168.415 133.884 170.054 137.522 170.053C141.159 170.053 144.647 168.414 147.219 165.495C149.791 162.577 151.235 158.619 151.235 154.493C151.235 150.366 149.79 146.408 147.218 143.491L112.481 104.08C112.385 103.971 112.309 103.842 112.257 103.7C112.205 103.559 112.179 103.407 112.179 103.253C112.179 103.1 112.205 102.948 112.257 102.806C112.309 102.664 112.385 102.535 112.481 102.427L121.645 92.0296C122.027 91.5954 122.481 91.251 122.981 91.016C123.481 90.7811 124.017 90.6602 124.558 90.6603H126.681Z" fill="black"/>
<path d="M88.8064 129.605C82.2148 129.59 75.8943 126.614 71.2161 121.325L67.6497 117.262C67.2638 116.824 66.741 116.578 66.1959 116.578C65.6508 116.578 65.1279 116.824 64.742 117.262L42.87 142.047C38.9717 146.488 37.5796 153.024 39.5095 159.426C39.6175 159.786 39.7455 160.139 39.8929 160.481C42.4892 166.536 47.5275 170.054 53.0392 170.054C54.9347 170.059 56.8123 169.636 58.5632 168.809C60.3141 167.981 61.9035 166.767 63.2393 165.235L92.4088 131.85C92.5316 131.708 92.6256 131.536 92.6843 131.348C92.7429 131.159 92.7648 130.959 92.7485 130.76V130.684C92.737 130.501 92.6932 130.323 92.6197 130.16C92.5461 129.997 92.4444 129.852 92.3205 129.736C92.1967 129.619 92.0534 129.531 91.8992 129.479C91.745 129.427 91.5831 129.411 91.4233 129.432C90.5542 129.542 89.6807 129.6 88.8064 129.605V129.605Z" fill="black"/>
</svg>
