<svg width="100" height="100" viewBox="0 0 100 100" fill="none" xmlns="http://www.w3.org/2000/svg">
<path d="M50 25C46.9097 25 43.8887 25.9164 41.3192 27.6333C38.7497 29.3502 36.747 31.7905 35.5644 34.6456C34.3818 37.5007 34.0723 40.6423 34.6752 43.6733C35.2781 46.7042 36.7663 49.4883 38.9515 51.6735C41.1367 53.8587 43.9208 55.3469 46.9517 55.9498C49.9827 56.5527 53.1243 56.2432 55.9794 55.0606C58.8345 53.878 61.2748 51.8753 62.9917 49.3058C64.7086 46.7363 65.625 43.7153 65.625 40.625C65.625 36.481 63.9788 32.5067 61.0486 29.5765C58.1183 26.6462 54.144 25 50 25Z" fill="#F8F8F8"/>
<path d="M50 6.25C41.3471 6.25 32.8885 8.81589 25.6938 13.6232C18.4992 18.4305 12.8916 25.2633 9.58029 33.2576C6.26896 41.2519 5.40256 50.0485 7.09066 58.5352C8.77877 67.0219 12.9455 74.8174 19.0641 80.9359C25.1826 87.0545 32.9782 91.2213 41.4648 92.9094C49.9515 94.5975 58.7482 93.7311 66.7424 90.4197C74.7367 87.1084 81.5695 81.5008 86.3768 74.3062C91.1841 67.1115 93.75 58.6529 93.75 50C93.7368 38.4008 89.1232 27.2805 80.9213 19.0787C72.7195 10.8768 61.5992 6.26323 50 6.25V6.25ZM74.975 77.8938C74.9127 73.7948 73.2427 69.8843 70.3247 67.005C67.4068 64.1256 63.4744 62.5077 59.375 62.5H40.625C36.5256 62.5077 32.5933 64.1256 29.6753 67.005C26.7573 69.8843 25.0873 73.7948 25.025 77.8938C19.358 72.8336 15.3617 66.1715 13.5651 58.7896C11.7686 51.4077 12.2566 43.6542 14.9645 36.5558C17.6724 29.4574 22.4726 23.349 28.7293 19.0393C34.986 14.7296 42.4042 12.422 50.0016 12.422C57.599 12.422 65.0171 14.7296 71.2739 19.0393C77.5306 23.349 82.3307 29.4574 85.0387 36.5558C87.7466 43.6542 88.2346 51.4077 86.438 58.7896C84.6415 66.1715 80.6451 72.8336 74.9781 77.8938H74.975Z" fill="#F8F8F8"/>
</svg>
